<?xml version="1.0" encoding="utf-8"?>
<!DOCTYPE svg PUBLIC "-//W3C//DTD SVG 1.1//EN" "http://www.w3.org/Graphics/SVG/1.1/DTD/svg11.dtd">
<svg version="1.1" id="Layer_1" xmlns="http://www.w3.org/2000/svg" xmlns:xlink="http://www.w3.org/1999/xlink" x="0px" y="0px"
	 width="600px" height="600px" viewBox="0 0 600 600" enable-background="new 0 0 600 600" xml:space="preserve">
<g>
	<path fill="#FFFFFF" d="M468.89,80.884c-22.334,7.82-40.651,27.935-51.903,48.323c-13.15,23.833-19.021,48.036-28.009,53.407
		c-17.957,15.097-39.868,42.7-61.829,71.772c-20.47,27.104-36.186,44.149-62.291,78.711c-9.84,12.114-52.777,36.027-104.011,51.821
		C92.732,405.918,14.933,420.973,8.193,422.573c-5.89,1.398-3.468,5.513,5.961,6.423c-11.085,7.638-18.287,18.153-11.54,17.594
		c6.532-2.896,87.819-30.943,157.197-40.427c19.052-2.604,37.205,3.454,52.665,3.042c15.529-0.41,28.336-1.036,36.617-7.75
		c2.367,1.292,0.006,8.407,2.842,11.701c3.925,4.557,14.915,1.412,13.724,6.742c-23.98,23.437-46.897,74.065-38.085,70.593
		c20.248-13.868,73.902-50.392,90.621-60.005c164.791,43.617,221.96-38.324,249.417-86.635
		c31.155-71.293,24.038-124.5,4.566-155.731c-4.504-5.24-5.365-16.34-5.725-26.255c-0.354-9.976-0.187-18.756,1.861-19.163
		c0,0,4.725-0.508,13.595-3.525c10.729-3.649,18.089-6.561,18.089-6.561s-8.883-3.906-18.194-5.552
		c-5.466-0.964-11.083-3.045-15.142-3.659c1.146-6.802-2.993-25.608-20.717-37.75C529.899,74.662,498.325,71.118,468.89,80.884
		L468.89,80.884z"/>
	<path fill="#424146" d="M319.293,431.389c0,0,7.938,5.645,9.796,6.583c6.881,3.472,12.936,4.899,12.936,4.899l52.796,98.044
		c-12.349,1.313-14.479,0.736-28.217,4.134c28.607,2.085,40.033,9.907,62.447,33.097c-4.542-14.524-7.485-17.788-14.318-24.064
		c14.343,5.089,25.404,12.401,39.522,22.205c-7.895-13.961-18.725-20.847-31.24-27.467c10.028-0.251,18.414,2.435,26.327,4.512
		c-16.618-13.938-45.31-12.413-45.31-12.413l-46.591-93.036l3.023,0.738l64.451,77.244c0,0-7.144-0.035-18.063,6.395
		c29.643,0.684,47.573,9.693,72.974,24.413c-11.066-16.265-26.714-21.791-26.714-21.791c12.574,0.619,23.54,2.574,42.834,8.073
		c-11.719-7.683-25.014-12.683-45.08-14.509c8.013-1.581,15.03-1.832,28.567-1.078c-25.066-7.021-46.811-3.011-46.811-3.011
		l-60.29-78.498l21.216-2.896c0,0-24.157-1.556-39.183-4.162C346.395,437.598,319.293,431.389,319.293,431.389L319.293,431.389z"/>
	<path fill="#FF8500" d="M477.406,184.284c33.129,18.062,83.688,50.322,43.619,150.218
		c-35.628,79.438-131.39,109.066-131.39,109.066c-0.003,0,134.769,18.484,184.807-113.682c24.45-64.302,15.913-112.613-2.266-141.77
		c-4.502-5.24-5.363-16.341-5.722-26.255c-0.355-9.976-0.188-18.756,1.86-19.163c0,0-7.702,0.815-18.545,0.271
		c-7.289-0.365-15.998-2.47-24.739-4.724c8.769-2.15,13.619-3.764,17.788-6.398c6.707-4.242,8.728-8.228,10.136-9.116
		c2.698-2.863,8.371-1.806,13.711,0.671c0.724-4.301,1.014-10.146-4.578-18.994c-12.11-16.229,0.472,3.586-10.395,8.425
		c-15.771,6.57-30.645,5.686-43.437,4.127c-16.823-2.049-48.267-6.503-53.559,26.925
		C449.893,174.281,469.865,180.175,477.406,184.284L477.406,184.284z"/>
	<path fill="#424146" d="M468.89,80.884c-22.334,7.82-40.651,27.935-51.903,48.323c-13.15,23.833-19.021,48.036-28.009,53.407
		c-17.957,15.097-39.868,42.7-61.829,71.772c-20.47,27.104-36.186,44.149-62.291,78.711c-9.84,12.114-52.777,36.027-104.011,51.821
		C92.732,405.918,14.933,420.973,8.193,422.573c-5.89,1.398-3.468,5.513,5.961,6.423c-11.085,7.638-18.287,18.153-11.54,17.594
		c42.046-13.742,94.573-26.857,140.687-38.756c55.458-11.576,74.975,12.709,106.374-6.693c-0.814,4.891-0.509,9.343,2.262,12.017
		c3.925,4.557,14.915,1.41,13.724,6.742c-23.98,23.437-46.897,74.065-38.085,70.593c20.248-13.868,73.902-50.392,90.621-60.005
		c63.132-37.415,101.498-71.409,125.296-99.749c14.203-16.922,82.359-113.463,9.109-123.854
		c-20.203-4.513-52.766-52.79,12.791-101.749c19.245-10.521,53.185,4.271,70.755,1.613c16.495-2.491,19.852-10.792,17.608-14.514
		c-2.249-2.323-4.835-4.543-7.809-6.581C529.899,74.662,498.325,71.118,468.89,80.884L468.89,80.884z"/>
	<path fill="#FFFFFF" d="M477.098,115.44c7.482,0,13.553,5.275,13.553,11.783c0,6.506-6.069,11.781-13.553,11.781
		c-7.487,0-13.554-5.274-13.554-11.781C463.544,120.715,469.612,115.44,477.098,115.44L477.098,115.44z"/>
	<path fill="#424146" d="M477.383,119.23c5.281,0,9.563,3.767,9.563,8.416c0,4.648-4.28,8.415-9.563,8.415
		c-5.279,0-9.561-3.767-9.561-8.415C467.823,122.997,472.104,119.23,477.383,119.23L477.383,119.23z"/>
	<path fill="#FFFFFF" d="M478.025,124.409c2.111,0,3.823,1.448,3.823,3.236s-1.712,3.236-3.823,3.236
		c-2.113,0-3.825-1.448-3.825-3.236C474.198,125.857,475.91,124.409,478.025,124.409L478.025,124.409z"/>
	<path fill="#424146" d="M567.196,142.7c4.974-1.314,28.082-6.27,32.805-10.086c-6.852-0.573-22.768-3.475-33.903-9.229
		c0.983,2.666,3.142,6.381,6.396,8.956c-14.945,1.661-12.707,12.064-47.858,3.882c1.271,2.485,11.127,6.002,18.543,7.302
		C553.587,145.348,557.651,144.641,567.196,142.7L567.196,142.7z"/>
	<path fill="#424146" d="M556.13,125.402c3.372,0.45,3.822,1.35,4.497,2.247c0.678,0.897-1.572,2.018-4.497,2.243
		c-2.926,0.225-4.951,2.691-6.748,3.365c-1.803,0.675-0.451-3.591,1.123-4.489C552.077,127.871,552.753,124.954,556.13,125.402
		L556.13,125.402z"/>
	<path fill="#FE0002" d="M542.767,134.148c0.983,0,1.779,0.798,1.779,1.782c0,0.982-0.796,1.778-1.779,1.778
		c-0.982,0-1.782-0.796-1.782-1.778C540.985,134.946,541.783,134.148,542.767,134.148L542.767,134.148z"/>
	<g transform="translate(11 75)">
		<path fill="#444447" d="M528.058,5.16"/>
		<path fill="#444447" d="M470.879-27.354c32.758,1.086,58.965,26.418,61.662,29.15c2.696,2.732,2.002,2.317,4.712,6.008
			c0,0-35.636-9.58-43.951-10.493c-8.318-0.913-29.198-3.364-39.24-3.364c-10.045,0-15.696,1.122-15.696,1.122v-11.211
			c0-4.484,1.681-9.482,3.363-11.211C443.41-29.082,470.879-27.354,470.879-27.354z"/>
		<path fill="#44A83A" d="M502.271,14.129c-22.517-0.701-63.159,2.616-65.026,2.242s-6.821-14.855-4.483-19.06
			c2.336-4.205,7.848-3.364,12.332-3.364h11.212c41.728,0.315,64.994,8.652,73.996,11.212c10.511,2.99,12.191,5.904,12.646,7.252
			c0.456,1.349-0.612,3.749-1.226,3.959c-0.613,0.209-3.188,0.28-9.182,0"/>
	</g>
	<path fill="#F78A12" d="M441.524,28.97l12.449,10.454l1.211-3.191l0.493,4.098c3.945,1.367,27.641,22.322,23.182,18.582
		c1.334,0.459-24.941-25.939-24.941-25.939l-1.503,0.703l-0.211-3.102c0,0,3.526,3.561,8.079,8.114
		c0.203,0.207,0.757-2.42,0.757-2.42s0.447,3.629,0.745,3.923c8.394,8.372,19.178,18.97,18.604,17.604
		c-2.737-3.504-5.711-7.338-6.555-8.529c-1.666-2.365-13.729-16.529-13.729-16.529l-1.224,1.868l-0.491-4.098l-7.49-8.653
		l-1.179,7.16L441.524,28.97z"/>
</g>
</svg>
